<svg width="60" height="60" viewBox="0 0 60 60" fill="none" xmlns="http://www.w3.org/2000/svg">
<path d="M30 0C13.457 0 0 13.4583 0 30C0 46.5417 13.457 60 30 60C46.543 60 60 46.5417 60 30C60 13.4583 46.543 0 30 0ZM30 57.5C14.8364 57.5 2.49996 45.1636 2.49996 30C2.49996 14.8364 14.8364 2.49996 30 2.49996C45.1636 2.49996 57.5 14.8364 57.5 30C57.5 45.1636 45.1636 57.5 30 57.5Z" fill="white"/>
<path d="M41.9263 28.949L24.4263 17.699C24.043 17.4488 23.5474 17.4353 23.1519 17.6526C22.749 17.8723 22.5 18.2923 22.5 18.75V41.25C22.5 41.7078 22.749 42.1278 23.1519 42.3475C23.3374 42.4489 23.545 42.5001 23.75 42.5001C23.9844 42.5001 24.2213 42.4341 24.4263 42.3011L41.9263 31.0511C42.2828 30.8216 42.5 30.4248 42.5 30C42.5 29.5752 42.2828 29.1785 41.9263 28.949ZM25 38.9599V21.0401L38.938 30L25 38.9599Z" fill="white"/>
</svg>
