<svg width="40" height="40" viewBox="0 0 40 40" fill="none" xmlns="http://www.w3.org/2000/svg">
<path d="M37.6565 33.1703V12.8906C37.6565 12.2436 37.1316 11.7187 36.4846 11.7187C35.8373 11.7187 35.3127 12.2436 35.3127 12.8906V18.7501H29.4532C28.8059 18.7501 28.2813 19.2747 28.2813 19.922C28.2813 20.569 28.8059 21.0939 29.4532 21.0939H35.3127V33.1703C34.3154 33.524 33.524 34.3154 33.1703 35.3127H21.2502V26.9531C21.2502 26.3061 20.7253 25.7812 20.0783 25.7812C19.431 25.7812 18.9064 26.3061 18.9064 26.9531V35.3127H6.82969C6.47598 34.3154 5.68464 33.524 4.68761 33.1703V21.0939H13.0469C13.6942 21.0939 14.2188 20.569 14.2188 19.922C14.2188 19.2747 13.6942 18.7501 13.0469 18.7501H4.68761V6.82969C5.68464 6.47598 6.47598 5.68464 6.82969 4.68761H18.9064V10.5468C18.9064 11.1941 19.431 11.7187 20.0783 11.7187C20.7253 11.7187 21.2502 11.1941 21.2502 10.5468V4.68761H27.1094C27.7567 4.68761 28.2813 4.16269 28.2813 3.51571C28.2813 2.86841 27.7567 2.3438 27.1094 2.3438H6.82969C6.34597 0.979942 5.04345 0 3.51571 0C1.57718 0 0 1.57718 0 3.51571C0 5.04345 0.979637 6.34597 2.3438 6.82969V33.1703C0.979637 33.654 0 34.9569 0 36.4846C0 38.4231 1.57718 40 3.51571 40C5.04345 40 6.34597 39.0204 6.82969 37.6565H33.1703C33.654 39.0204 34.9569 40 36.4846 40C38.4231 40 40 38.4231 40 36.4846C40 34.9569 39.0204 33.654 37.6565 33.1703ZM3.51571 2.3438C4.16178 2.3438 4.68761 2.86933 4.68761 3.51571C4.68761 4.16178 4.16178 4.68761 3.51571 4.68761C2.86933 4.68761 2.3438 4.16178 2.3438 3.51571C2.3438 2.86933 2.86933 2.3438 3.51571 2.3438ZM3.51571 37.6565C2.86933 37.6565 2.3438 37.1307 2.3438 36.4846C2.3438 35.8382 2.86933 35.3127 3.51571 35.3127C4.16178 35.3127 4.68761 35.8382 4.68761 36.4846C4.68761 37.1307 4.16178 37.6565 3.51571 37.6565ZM36.4846 37.6565C35.8382 37.6565 35.3127 37.1307 35.3127 36.4846C35.3127 35.8382 35.8382 35.3127 36.4846 35.3127C37.1307 35.3127 37.6565 35.8382 37.6565 36.4846C37.6565 37.1307 37.1307 37.6565 36.4846 37.6565Z" fill="white"/>
</svg>
