<svg width="40" height="40" viewBox="0 0 40 40" fill="none" xmlns="http://www.w3.org/2000/svg">
<path d="M17.0833 15H1.25C0.56 15 0 14.44 0 13.75C0 13.06 0.56 12.5 1.25 12.5H17.0833C17.7733 12.5 18.3333 13.06 18.3333 13.75C18.3333 14.44 17.7733 15 17.0833 15Z" fill="white"/>
<path d="M17.0833 20H1.25C0.56 20 0 19.44 0 18.75C0 18.06 0.56 17.5 1.25 17.5H17.0833C17.7733 17.5 18.3333 18.06 18.3333 18.75C18.3333 19.44 17.7733 20 17.0833 20Z" fill="white"/>
<path d="M17.0833 25H1.25C0.56 25 0 24.44 0 23.75C0 23.06 0.56 22.5 1.25 22.5H17.0833C17.7733 22.5 18.3333 23.06 18.3333 23.75C18.3333 24.44 17.7733 25 17.0833 25Z" fill="white"/>
<path d="M17.0833 30H1.25C0.56 30 0 29.44 0 28.75C0 28.06 0.56 27.5 1.25 27.5H17.0833C17.7733 27.5 18.3333 28.06 18.3333 28.75C18.3333 29.44 17.7733 30 17.0833 30Z" fill="white"/>
<path d="M17.0833 35H1.25C0.56 35 0 34.44 0 33.75C0 33.06 0.56 32.5 1.25 32.5H17.0833C17.7733 32.5 18.3333 33.06 18.3333 33.75C18.3333 34.44 17.7733 35 17.0833 35Z" fill="white"/>
<path d="M37.0827 25H24.5827C22.9743 25 21.666 23.6917 21.666 22.0833V15.4167C21.666 13.8083 22.9743 12.5 24.5827 12.5H37.0827C38.691 12.5 39.9993 13.8083 39.9993 15.4167V22.0833C39.9993 23.6917 38.691 25 37.0827 25ZM24.5827 15C24.3527 15 24.166 15.1867 24.166 15.4167V22.0833C24.166 22.3133 24.3527 22.5 24.5827 22.5H37.0827C37.3127 22.5 37.4993 22.3133 37.4993 22.0833V15.4167C37.4993 15.1867 37.3127 15 37.0827 15H24.5827Z" fill="white"/>
<path d="M37.0827 40H24.5827C22.9743 40 21.666 38.6917 21.666 37.0833V30.4167C21.666 28.8083 22.9743 27.5 24.5827 27.5H37.0827C38.691 27.5 39.9993 28.8083 39.9993 30.4167V37.0833C39.9993 38.6917 38.691 40 37.0827 40ZM24.5827 30C24.3527 30 24.166 30.1867 24.166 30.4167V37.0833C24.166 37.3133 24.3527 37.5 24.5827 37.5H37.0827C37.3127 37.5 37.4993 37.3133 37.4993 37.0833V30.4167C37.4993 30.1867 37.3127 30 37.0827 30H24.5827Z" fill="white"/>
<path d="M17.0833 40H1.25C0.56 40 0 39.44 0 38.75C0 38.06 0.56 37.5 1.25 37.5H17.0833C17.7733 37.5 18.3333 38.06 18.3333 38.75C18.3333 39.44 17.7733 40 17.0833 40Z" fill="white"/>
<path d="M37.084 10H16.2507C14.6423 10 13.334 8.69167 13.334 7.08333V2.91667C13.334 1.30833 14.6423 0 16.2507 0H37.084C38.6923 0 40.0006 1.30833 40.0006 2.91667V7.08333C40.0006 8.69167 38.6923 10 37.084 10ZM16.2507 2.5C16.0207 2.5 15.834 2.68667 15.834 2.91667V7.08333C15.834 7.31333 16.0207 7.5 16.2507 7.5H37.084C37.314 7.5 37.5006 7.31333 37.5006 7.08333V2.91667C37.5006 2.68667 37.314 2.5 37.084 2.5H16.2507Z" fill="white"/>
<path d="M5 10C2.24333 10 0 7.75667 0 5C0 2.24333 2.24333 0 5 0C7.75666 0 10 2.24333 10 5C10 7.75667 7.75666 10 5 10ZM5 2.5C3.62167 2.5 2.5 3.62167 2.5 5C2.5 6.37833 3.62167 7.5 5 7.5C6.37833 7.5 7.5 6.37833 7.5 5C7.5 3.62167 6.37833 2.5 5 2.5Z" fill="white"/>
</svg>
