<svg width="40" height="40" viewBox="0 0 40 40" fill="none" xmlns="http://www.w3.org/2000/svg">
<path d="M3.22574 36H20V34.6664H3.22574C2.15686 34.6664 1.29027 33.771 1.29027 32.6665V3.33325C1.29027 2.2284 2.15686 1.33327 3.22574 1.33327H31.6129C32.6822 1.33327 33.5484 2.2284 33.5484 3.33325V18.6664H34.8389V3.33325C34.8368 1.49318 33.3938 0.00217225 31.6129 0H3.22574C1.44534 0.00217225 0.00226391 1.49318 0 3.33325V32.6665C0.00226391 34.5065 1.44534 35.9975 3.22574 36Z" fill="white"/>
<path d="M2.58203 2.66687H3.87213V3.99997H2.58203V2.66687Z" fill="white"/>
<path d="M5.16016 2.66687H6.45074V3.99997H5.16016V2.66687Z" fill="white"/>
<path d="M7.74219 2.66687H9.03261V3.99997H7.74219V2.66687Z" fill="white"/>
<path d="M2.58203 5.33324H32.2593V6.66684H2.58203V5.33324Z" fill="white"/>
<path d="M9.22249 8.19527L7.58374 9.88863C6.19855 8.94102 4.34361 9.23177 3.29234 10.5612C2.24124 11.8904 2.33552 13.8268 3.51016 15.0404C4.68465 16.2545 6.55868 16.3519 7.84522 15.2656C9.13161 14.1795 9.41314 12.2624 8.49593 10.8314L10.1345 9.13803L9.22249 8.19527ZM5.80738 14.6664C4.73866 14.6664 3.87207 13.7711 3.87207 12.6666C3.87207 11.5619 4.73866 10.6668 5.80738 10.6668C6.09522 10.6678 6.37837 10.736 6.63662 10.8665L5.35153 12.1946L6.26356 13.1373L7.54962 11.8101C7.67591 12.0768 7.74205 12.3693 7.74302 12.6666C7.74302 13.7711 6.87676 14.6664 5.80738 14.6664Z" fill="white"/>
<path d="M10.9688 10.6668H21.9362V11.9999H10.9688V10.6668Z" fill="white"/>
<path d="M10.9688 13.3333H15.4848V14.6664H10.9688V13.3333Z" fill="white"/>
<path d="M16.7734 13.3333H25.8055V14.6664H16.7734V13.3333Z" fill="white"/>
<path d="M23.2266 10.6668H29.6782V11.9999H23.2266V10.6668Z" fill="white"/>
<path d="M9.22249 16.1952L7.58374 17.8886C6.19855 16.941 4.34361 17.2317 3.29234 18.5611C2.24124 19.8906 2.33552 21.8267 3.51016 23.0407C4.68465 24.2545 6.55868 24.3519 7.84522 23.2656C9.13161 22.1793 9.41314 20.2628 8.49593 18.8313L10.1345 17.138L9.22249 16.1952ZM5.80738 22.6665C4.73866 22.6665 3.87207 21.7711 3.87207 20.6666C3.87207 19.5619 4.73866 18.6664 5.80738 18.6664C6.09522 18.6676 6.37837 18.7359 6.63662 18.8664L5.35153 20.1948L6.26356 21.1373L7.54962 19.8098C7.67591 20.0767 7.74205 20.3693 7.74302 20.6666C7.74302 21.7711 6.87676 22.6665 5.80738 22.6665Z" fill="white"/>
<path d="M10.9688 18.6664H21.9362V19.9998H10.9688V18.6664Z" fill="white"/>
<path d="M10.9688 21.3333H15.4848V22.6665H10.9688V21.3333Z" fill="white"/>
<path d="M16.7734 21.3333H21.9345V22.6665H16.7734V21.3333Z" fill="white"/>
<path d="M23.2266 18.6664H25.8071V19.9998H23.2266V18.6664Z" fill="white"/>
<path d="M9.22249 24.1951L7.58374 25.8885C6.19855 24.9409 4.34361 25.2316 3.29234 26.5611C2.24124 27.8905 2.33552 29.8266 3.51016 31.0406C4.68465 32.2545 6.55868 32.3516 7.84522 31.2655C9.13161 30.1792 9.41314 28.2626 8.49593 26.8311L10.1345 25.1379L9.22249 24.1951ZM5.80738 30.6665C4.73866 30.6665 3.87207 29.771 3.87207 28.6665C3.87207 27.5618 4.73866 26.6665 5.80738 26.6665C6.09522 26.6675 6.37837 26.7357 6.63662 26.8663L5.35153 28.1948L6.26356 29.1372L7.54962 27.8098C7.67591 28.0766 7.74205 28.3694 7.74302 28.6665C7.74302 29.771 6.87676 30.6665 5.80738 30.6665Z" fill="white"/>
<path d="M10.9688 26.6665H19.3557V28.0001H10.9688V26.6665Z" fill="white"/>
<path d="M10.9688 29.3332H15.4848V30.6665H10.9688V29.3332Z" fill="white"/>
<path d="M16.7734 29.3332H19.354V30.6665H16.7734V29.3332Z" fill="white"/>
<path d="M30.3221 40C35.667 40 39.9993 35.5225 39.9993 29.9999C39.9993 24.4769 35.667 19.9998 30.3221 19.9998C24.9772 19.9998 20.6445 24.4769 20.6445 29.9999C20.6508 35.52 24.9798 39.9933 30.3221 40ZM30.3221 21.3333C34.9539 21.3333 38.7092 25.2134 38.7092 29.9999C38.7092 34.7864 34.9539 38.6664 30.3221 38.6664C25.6898 38.6664 21.9346 34.7864 21.9346 29.9999C21.9401 25.2158 25.6919 21.3386 30.3221 21.3333Z" fill="white"/>
<path d="M26.3873 30.3684L25.2324 30.9642L26.5228 33.6309C26.6153 33.8228 26.7919 33.9569 26.9968 33.9912C27.0301 33.9965 27.0634 33.9994 27.0969 33.9999C27.2678 33.9999 27.432 33.9295 27.5533 33.8045L35.2948 25.8046L34.3828 24.8619L27.2735 32.2078L26.3873 30.3684Z" fill="white"/>
</svg>
